<?xml version="1.0" standalone="no"?>
<!DOCTYPE svg PUBLIC "-//W3C//DTD SVG 20010904//EN"
 "http://www.w3.org/TR/2001/REC-SVG-20010904/DTD/svg10.dtd">
<svg version="1.0" xmlns="http://www.w3.org/2000/svg"
 width="500.000000pt" height="500.000000pt" viewBox="0 0 500.000000 500.000000"
 preserveAspectRatio="xMidYMid meet">
<metadata>
Created by potrace 1.14, written by Peter Selinger 2001-2017
</metadata>
<g transform="translate(0.000000,500.000000) scale(0.100000,-0.100000)"
fill="#000000" stroke="none">
<path d="M2345 4893 c-400 -42 -635 -108 -950 -270 -152 -78 -332 -197 -421
-278 -6 -5 -40 -35 -74 -65 -35 -30 -71 -62 -80 -70 -23 -21 -164 -184 -198
-228 -15 -20 -33 -44 -41 -52 -58 -60 -212 -336 -289 -516 -39 -91 -106 -299
-117 -364 -3 -19 -10 -54 -16 -77 -37 -166 -59 -551 -39 -680 4 -26 11 -75 15
-108 17 -156 83 -408 146 -565 46 -113 154 -322 216 -419 46 -71 141 -200 163
-221 3 -3 34 -39 70 -80 83 -96 72 -85 165 -166 194 -169 312 -251 510 -352
269 -137 462 -198 780 -248 112 -18 447 -26 541 -13 32 4 82 11 109 14 80 9
312 62 410 94 151 48 422 174 522 242 23 16 45 29 48 29 19 0 319 241 380 306
233 243 391 482 521 784 35 82 101 279 110 330 2 14 12 57 20 95 9 39 18 86
20 105 2 19 6 45 9 57 25 111 26 504 1 653 -3 14 -7 42 -10 62 -22 146 -89
384 -146 518 -100 237 -224 442 -377 625 -132 159 -196 221 -363 356 -241 194
-657 392 -935 445 -11 2 -43 8 -71 14 -146 30 -262 42 -434 44 -91 1 -178 1
-195 -1z"/>
</g>
</svg>
